<svg width="39" height="33" viewBox="0 0 39 33" fill="none" xmlns="http://www.w3.org/2000/svg">
<circle cx="19.5" cy="16.5" r="10.5" fill="#003057"/>
<path d="M17.1389 19.9375C16.7167 19.9375 16.2944 19.5656 16.0833 19.4062C15.0278 18.6625 14.7111 18.3969 14.5 18.2375V20.4688C14.5 20.7621 14.7363 21 15.0278 21H19.25C19.5414 21 19.7778 20.7621 19.7778 20.4688V18.2375C19.5667 18.3969 19.25 18.6625 18.1944 19.4062C17.9833 19.5656 17.5611 19.9375 17.1389 19.9375ZM19.25 16.75H15.0278C14.7363 16.75 14.5 16.9879 14.5 17.2812V17.5469C14.9222 17.8656 14.8694 17.8656 16.4 18.9812C16.5583 19.0875 16.875 19.4062 17.1389 19.4062C17.4028 19.4062 17.7194 19.0875 17.8778 19.0344C19.4083 17.9188 19.3556 17.9188 19.7778 17.6V17.2812C19.7778 16.9879 19.5414 16.75 19.25 16.75ZM23.4722 15.1562H18.1944C17.903 15.1562 17.6667 15.3942 17.6667 15.6875V16.2188H19.25C19.7977 16.2188 20.2493 16.6408 20.3008 17.1787L20.3056 17.175V19.4062H23.4722C23.7637 19.4062 24 19.1683 24 18.875V15.6875C24 15.3942 23.7637 15.1562 23.4722 15.1562ZM22.9444 17.2812H21.8889V16.2188H22.9444V17.2812ZM17.1389 15.6875C17.1389 15.1016 17.6124 14.625 18.1944 14.625H21.8889V13.0312C21.8889 12.7379 21.6525 12.5 21.3611 12.5H16.0833C15.7919 12.5 15.5556 12.7379 15.5556 13.0312V16.2188H17.1389V15.6875Z" fill="white"/>
</svg>
