<svg width="39" height="33" viewBox="0 0 39 33" fill="none" xmlns="http://www.w3.org/2000/svg">
<path d="M21.4941 20.0436L21.4946 20.044C21.7359 20.2183 22.0718 20.1651 22.247 19.927L22.2477 19.9261L23.0436 18.8309L23.044 18.8304C23.2167 18.5913 23.1703 18.2541 22.926 18.0773C22.9259 18.0772 22.9257 18.0771 22.9256 18.077L21.2161 16.8333V13.0484C21.2161 12.7516 20.9742 12.5097 20.6774 12.5097H19.3226C19.0258 12.5097 18.7839 12.7516 18.7839 13.0484V17.7988C18.7839 17.9695 18.8648 18.1306 19.003 18.2332L19.0046 18.2344L21.4941 20.0436ZM13.2 17C13.2 13.2435 16.2435 10.2 20 10.2C23.7565 10.2 26.8 13.2435 26.8 17C26.8 20.7565 23.7565 23.8 20 23.8C16.2435 23.8 13.2 20.7565 13.2 17Z" stroke="black" stroke-width="0.4"/>
</svg>
