<svg width="40" height="34" viewBox="0 0 40 34" fill="none" xmlns="http://www.w3.org/2000/svg">
<circle cx="20" cy="17" r="11" fill="#003057"/>
<path d="M24.4594 19.102L22.5115 18.2672C22.4282 18.2317 22.3358 18.2242 22.2479 18.2459C22.1601 18.2675 22.0817 18.3171 22.0245 18.3872L21.1618 19.4411C19.8079 18.8028 18.7184 17.7133 18.08 16.3594L19.134 15.4967C19.2042 15.4396 19.2539 15.3612 19.2756 15.2733C19.2972 15.1854 19.2897 15.0929 19.254 15.0097L18.4192 13.0618C18.3801 12.9721 18.3109 12.8989 18.2236 12.8548C18.1363 12.8106 18.0363 12.7983 17.9409 12.82L16.1321 13.2374C16.0401 13.2587 15.9581 13.3105 15.8993 13.3844C15.8405 13.4582 15.8086 13.5499 15.8086 13.6442C15.8086 18.1054 19.4245 21.7143 23.8787 21.7143C23.9731 21.7144 24.0648 21.6824 24.1387 21.6237C24.2126 21.5649 24.2644 21.4828 24.2857 21.3908L24.7031 19.582C24.7246 19.4862 24.7121 19.3858 24.6676 19.2982C24.6231 19.2106 24.5495 19.1412 24.4594 19.102Z" fill="white"/>
</svg>
