<svg width="40" height="34" viewBox="0 0 40 34" fill="none" xmlns="http://www.w3.org/2000/svg">
<circle cx="20" cy="17" r="11" fill="#003057"/>
<path d="M19.9123 21.5347C17.3357 17.8712 16.8574 17.4952 16.8574 16.1489C16.8574 14.3046 18.3818 12.8096 20.2622 12.8096C22.1426 12.8096 23.6669 14.3046 23.6669 16.1489C23.6669 17.4952 23.1887 17.8712 20.6121 21.5347C20.443 21.7742 20.0813 21.7742 19.9123 21.5347ZM20.2622 17.5402C21.0457 17.5402 21.6808 16.9173 21.6808 16.1489C21.6808 15.3804 21.0457 14.7575 20.2622 14.7575C19.4787 14.7575 18.8435 15.3804 18.8435 16.1489C18.8435 16.9173 19.4787 17.5402 20.2622 17.5402Z" fill="white"/>
</svg>
