<?xml version="1.0" encoding="utf-8"?>
<!-- Generator: Adobe Illustrator 24.0.2, SVG Export Plug-In . SVG Version: 6.00 Build 0)  -->
<svg version="1.1" id="Capa_1" xmlns="http://www.w3.org/2000/svg" xmlns:xlink="http://www.w3.org/1999/xlink" x="0px" y="0px"
	 viewBox="0 0 60 57" style="enable-background:new 0 0 60 57;" xml:space="preserve">
<style type="text/css">
	.st0{fill:none;}
</style>
<g>
	<circle class="st0" cx="30" cy="28.7" r="28.3"/>
	<g>
		<g>
			<path d="M47.4,44.8l-3.3-3.3c2.5-3.2,3.9-7.1,3.9-11.2c0-1.7-0.3-3.4-0.7-5c-1-3.5-3.1-6.6-5.8-8.8c-0.2-0.2-0.4-0.3-0.6-0.5
				c-0.6-0.4-1.1-0.8-1.8-1.2c-2.7-1.6-5.8-2.5-9.2-2.5H11.9v18c0,0,0,0,0,0c0,3.3,0.9,6.5,2.5,9.2c0.5,0.8,1,1.6,1.6,2.3
				c3.3,4,8.3,6.5,13.9,6.5c0.8,0,1.5-0.5,1.8-1.1c0.2-0.3,0.3-0.6,0.3-1c0-1.1-0.9-2.1-2.1-2.1c-2.8,0-5.4-0.8-7.6-2.3
				c-0.2-0.1-0.4-0.3-0.6-0.4c-0.6-0.4-1.1-0.9-1.6-1.4c-2.5-2.5-4.1-6-4.1-9.8V16.4H30c3.8,0,7.3,1.6,9.8,4.1c0.5,0.5,1,1,1.4,1.6
				c0,0,0,0,0,0c0.1,0.2,0.3,0.4,0.4,0.6c1.5,2.2,2.3,4.8,2.3,7.7c0,0.8-0.1,1.5-0.2,2.2c-0.4,2.2-1.2,4.2-2.5,6l-3.4-3.4l-1.8-1.8
				l-4.5-4.5c-0.8-0.8-2.1-0.8-2.9,0c-0.8,0.8-0.8,2.1,0,2.9l4.5,4.5c0,0,0,0,0,0l11.5,11.5c0.4,0.4,0.9,0.6,1.5,0.6
				c0.5,0,1.1-0.2,1.5-0.6c0.5-0.5,0.7-1.1,0.6-1.7C47.9,45.6,47.7,45.2,47.4,44.8z"/>
		</g>
	</g>
</g>
</svg>
