<svg width="23" height="23" viewBox="0 0 23 23" fill="none" xmlns="http://www.w3.org/2000/svg">
<path d="M5 6C18.8589 6 15.6379 15.2074 15.6525 16.6292L18 19H17.2455L15.2027 16.9339C14.071 17.0558 11.5929 17.935 8.98125 15.8603C6.36384 13.7855 6.50893 11.3016 5 6ZM7.31272 7.33482C5.87054 6.6529 7.16183 7.60179 7.16183 7.60179C8.47344 8.50714 9.07701 9.7404 9.77924 11.081C10.6933 12.8279 12.0717 15.1348 13.9636 15.9473C15.8498 16.7598 14.956 16.31 14.1377 15.7007C13.3194 15.0855 12.1587 13.1761 11.4971 11.9225C10.5772 10.1815 9.72701 8.48103 7.31272 7.33482Z" fill="black"/>
<circle cx="11.5" cy="11.5" r="11" stroke="black"/>
</svg>
