<svg width="33" height="32" viewBox="0 0 33 32" fill="none" xmlns="http://www.w3.org/2000/svg">
<path d="M0.5 0C34.6143 0 26.6857 22.6643 26.7214 26.1643L32.5 32H30.6429L25.6143 26.9143C22.8286 27.2143 16.7286 29.3786 10.3 24.2714C3.85714 19.1643 4.21429 13.05 0.5 0ZM6.19286 3.28571C2.64286 1.60714 5.82143 3.94286 5.82143 3.94286C9.05 6.17143 10.5357 9.20714 12.2643 12.5071C14.5143 16.8071 17.9071 22.4857 22.5643 24.4857C27.2071 26.4857 25.0071 25.3786 22.9929 23.8786C20.9786 22.3643 18.1214 17.6643 16.4929 14.5786C14.2286 10.2929 12.1357 6.10714 6.19286 3.28571Z" fill="black"/>
</svg>
