<svg width="137" height="42" viewBox="0 0 137 42" fill="none" xmlns="http://www.w3.org/2000/svg">
<g clip-path="url(#clip0_457_1234)">
<path d="M49.7747 16.3085C50.3734 15.3395 50.6783 14.1855 50.6783 12.8356C50.6783 10.8106 50.0468 9.25381 48.784 8.17601C47.5211 7.09821 45.6377 6.56476 43.1337 6.56476H35.2952V26.259H39.3015V19.1391H43.199L46.3671 26.259H50.8416L47.1836 18.4641C48.3158 17.9851 49.1759 17.2665 49.7747 16.3085ZM45.6594 14.8714C45.1042 15.394 44.2659 15.6553 43.1446 15.6553H39.3015V10.0377H43.1446C44.2659 10.0377 45.1042 10.2989 45.6594 10.8215C46.2147 11.3441 46.4868 12.0191 46.4868 12.8574C46.476 13.6848 46.2038 14.3488 45.6594 14.8714Z" fill="#003057"/>
<path d="M60.6833 22.7862C60.1499 23.0801 59.5293 23.2217 58.7999 23.2217C57.8201 23.2217 57.0144 22.9386 56.3939 22.3725C55.7733 21.8064 55.4359 21.0661 55.4032 20.1516H65.2667C65.3756 19.4875 65.43 18.8996 65.43 18.3988C65.43 17.1577 65.1469 16.0363 64.5808 15.0565C64.0147 14.0767 63.2308 13.3037 62.2184 12.7594C61.2059 12.2151 60.041 11.932 58.7128 11.932C57.3519 11.932 56.1326 12.226 55.0657 12.803C53.9988 13.3908 53.1714 14.2182 52.5835 15.296C51.9956 16.3738 51.7017 17.6258 51.7017 19.052C51.7017 20.4673 51.9956 21.7193 52.5835 22.808C53.1714 23.8966 53.9988 24.7458 55.0766 25.3555C56.1544 25.9543 57.3955 26.2591 58.7999 26.2591C60.4874 26.2591 61.9353 25.8345 63.1655 24.9853C64.3957 24.1362 65.1578 23.0039 65.4627 21.5886H61.8156C61.5869 22.1003 61.2168 22.4922 60.6833 22.7862ZM56.3721 15.7315C56.96 15.2525 57.7003 15.013 58.6039 15.013C59.464 15.013 60.1716 15.2525 60.7378 15.7206C61.293 16.1888 61.5869 16.842 61.6087 17.6585H55.4467C55.4794 16.8637 55.7842 16.2214 56.3721 15.7315Z" fill="#003057"/>
<path d="M83.7525 15.8186C83.0993 18.0504 82.5985 19.8685 82.2502 21.2512C81.8691 19.7052 81.4119 17.996 80.8893 16.1343C80.3667 14.2727 79.8986 12.705 79.6591 11.9538H75.6419C75.4023 12.6832 74.9451 14.1421 74.4552 15.7969C73.9544 17.4517 73.4427 19.1935 72.9093 21.0008C72.6806 19.9012 72.2016 18.094 71.4722 15.6009L70.3835 11.9538H66.105L70.8952 26.2809H74.956C76.11 22.6447 77.0027 19.5855 77.645 17.1359C77.7539 17.6041 78.0478 18.7036 78.5269 20.4455C79.0059 22.1874 79.5829 24.1253 80.2361 26.2809H84.1009L89.1415 11.9538H84.9283L83.7525 15.8186Z" fill="#003057"/>
<path d="M99.4623 21.5995C99.2336 22.1003 98.8635 22.4922 98.33 22.7862C97.7966 23.0801 97.176 23.2217 96.4466 23.2217C95.4668 23.2217 94.6612 22.9386 94.0406 22.3725C93.4201 21.8064 93.0826 21.0661 93.0499 20.1516H102.913C103.022 19.4875 103.077 18.8996 103.077 18.3988C103.077 17.1577 102.794 16.0363 102.228 15.0565C101.661 14.0767 100.878 13.3037 99.8651 12.7594C98.8526 12.2151 97.6877 11.932 96.3595 11.932C94.9987 11.932 93.7793 12.226 92.7124 12.803C91.6455 13.3908 90.8181 14.2182 90.2302 15.296C89.6423 16.3738 89.3484 17.6258 89.3484 19.052C89.3484 20.4673 89.6423 21.7193 90.2302 22.808C90.8181 23.8966 91.6455 24.7458 92.7233 25.3555C93.8011 25.9543 95.0422 26.2591 96.4466 26.2591C98.1341 26.2591 99.582 25.8345 100.812 24.9853C102.032 24.1362 102.805 23.0039 103.109 21.5886H99.4623V21.5995ZM94.0188 15.7315C94.6067 15.2525 95.347 15.013 96.2506 15.013C97.1107 15.013 97.8184 15.2525 98.3845 15.7206C98.9397 16.1888 99.2336 16.842 99.2554 17.6585H93.0826C93.1261 16.8637 93.4418 16.2214 94.0188 15.7315Z" fill="#003057"/>
<path d="M119.733 26.2373V11.9102H116.707L116.337 13.8916C115.847 13.2493 115.215 12.7485 114.432 12.411C113.648 12.0735 112.755 11.8993 111.753 11.8993C110.447 11.8993 109.282 12.2041 108.259 12.8029C107.235 13.4017 106.441 14.2617 105.885 15.3613C105.33 16.4609 105.047 17.7346 105.047 19.1717C105.047 20.587 105.319 21.8172 105.853 22.8841C106.386 23.951 107.148 24.7675 108.106 25.3554C109.075 25.9433 110.175 26.2264 111.416 26.2264C112.417 26.2264 113.332 26.0304 114.181 25.6494C115.019 25.2683 115.673 24.7567 116.141 24.1035V26.2155H119.733V26.2373ZM114.987 21.7954C114.323 22.4813 113.463 22.8297 112.396 22.8297C111.361 22.8297 110.512 22.4813 109.859 21.7737C109.206 21.0769 108.879 20.1624 108.879 19.0302C108.879 17.9088 109.195 16.9943 109.837 16.2867C110.469 15.5899 111.34 15.2416 112.428 15.2416C113.495 15.2416 114.355 15.5899 115.009 16.2758C115.662 16.9617 115.988 17.8871 115.988 19.0302C115.977 20.1842 115.64 21.0987 114.987 21.7954Z" fill="#003057"/>
<path d="M127.681 12.4981C127.06 12.8683 126.647 13.4126 126.44 14.1311L126.091 11.9429H122.553V26.27H126.505V19.3895C126.505 18.1484 126.843 17.1794 127.518 16.4936C128.193 15.8077 129.162 15.4702 130.424 15.4702C130.762 15.4702 131.012 15.4811 131.176 15.5029V12.1062C130.86 12.0082 130.424 11.9538 129.88 11.9538C129.042 11.9429 128.312 12.1279 127.681 12.4981Z" fill="#003057"/>
<path d="M15.3178 38.1584C15.0021 38.0604 13.6521 37.712 13.565 37.6903C13.1295 37.5705 12.8356 37.331 12.8356 36.9064C12.8356 36.2967 13.4561 36.1117 13.9569 36.1117C14.6863 36.1117 15.2198 36.4056 15.2633 37.1895H16.3302C16.3302 35.9157 15.2633 35.2516 14.0005 35.2516C12.9009 35.2516 11.7795 35.8177 11.7795 37.037C11.7795 37.6685 12.0844 38.2999 13.1295 38.583C13.9678 38.8116 14.523 38.9205 14.9476 39.0838C15.198 39.1818 15.4484 39.3668 15.4484 39.835C15.4484 40.2922 15.1 40.7604 14.1638 40.7604C13.3146 40.7604 12.6178 40.3902 12.6178 39.4539H11.54C11.5618 40.9563 12.694 41.6313 14.0767 41.6313C15.2851 41.6313 16.4935 41.087 16.4935 39.7261C16.5044 39.0729 16.1125 38.3979 15.3178 38.1584Z" fill="#003057"/>
<path d="M22.993 38.9314C22.993 39.7479 22.9386 40.695 21.5668 40.695C20.1842 40.695 20.1406 39.7479 20.1406 38.9314V35.3823H19.0737V39.2798C19.0737 40.8366 20.0753 41.6095 21.5668 41.6095C23.0583 41.6095 24.0599 40.8366 24.0599 39.2798V35.3823H22.993V38.9314Z" fill="#003057"/>
<path d="M30.3961 38.1584C30.0804 38.0604 28.7304 37.712 28.6433 37.6903C28.2078 37.5705 27.9139 37.331 27.9139 36.9064C27.9139 36.2967 28.5344 36.1117 29.0352 36.1117C29.7647 36.1117 30.2981 36.4056 30.3525 37.1895H31.4195C31.4195 35.9157 30.3526 35.2516 29.0897 35.2516C27.9901 35.2516 26.8688 35.8177 26.8688 37.037C26.8688 37.6685 27.1736 38.2999 28.2187 38.583C29.057 38.8116 29.6122 38.9205 30.0368 39.0838C30.2872 39.1818 30.5376 39.3668 30.5376 39.835C30.5376 40.2922 30.1892 40.7604 29.253 40.7604C28.4038 40.7604 27.707 40.3902 27.707 39.4539H26.6401C26.6619 40.9563 27.7941 41.6313 29.1768 41.6313C30.3852 41.6313 31.5937 41.087 31.5937 39.7261C31.5828 39.0729 31.1908 38.3979 30.3961 38.1584Z" fill="#003057"/>
<path d="M33.6296 36.3076H35.5566V41.468H36.6235V36.3076H38.5505V35.3931H33.6296V36.3076Z" fill="#003057"/>
<path d="M41.8054 35.3931L39.4756 41.4789H40.5752L41.1413 39.8676H43.5691L44.1352 41.4789H45.2892L42.9485 35.3931H41.8054ZM41.4352 39.0511L42.3606 36.4383H42.3824L43.2969 39.0511H41.4352Z" fill="#003057"/>
<path d="M48.6316 35.3931H47.5647V41.4789H48.6316V35.3931Z" fill="#003057"/>
<path d="M55.512 39.8676H55.5011L52.725 35.3931H51.5928V41.468H52.6052V36.9935H52.6379L55.4031 41.468H56.5245V35.3931H55.512V39.8676Z" fill="#003057"/>
<path d="M61.1188 35.3932L58.7891 41.468H59.8886L60.4547 39.8568H62.8825L63.4486 41.468H64.5917L62.2511 35.3823H61.1188V35.3932ZM60.7487 39.0511L61.6741 36.4383H61.6959L62.6103 39.0511H60.7487Z" fill="#003057"/>
<path d="M70.7754 38.2128V38.191C71.3306 37.9515 71.6464 37.5052 71.6464 36.8955C71.6464 35.883 70.9278 35.3931 69.8392 35.3931H66.8779V41.4789H69.6758C71.2544 41.4789 71.9185 40.7386 71.9185 39.7805C71.9076 38.9531 71.5157 38.3652 70.7754 38.2128ZM67.9448 36.2532H69.6867C70.2637 36.2532 70.5795 36.4709 70.5795 37.0915C70.5795 37.6358 70.1984 37.9298 69.6867 37.9298H67.9448V36.2532ZM69.8283 40.597H67.9448V38.7027H69.8283C70.4706 38.7027 70.8516 39.0402 70.8516 39.639C70.8516 40.2487 70.4706 40.597 69.8283 40.597Z" fill="#003057"/>
<path d="M75.6418 35.3931H74.575V41.468H78.7337V40.5535H75.6418V35.3931Z" fill="#003057"/>
<path d="M82.239 38.7681H85.2982V37.8971H82.239V36.3076H85.5486V35.3931H81.1721V41.468H85.6139V40.5535H82.239V38.7681Z" fill="#003057"/>
<path d="M97.4373 40.0418H97.4264L96.2288 35.3931H95.1401L93.9208 40.0418H93.899L92.7995 35.3931H91.7217L93.322 41.468H94.4216L95.6627 36.8193H95.6736L96.8929 41.468H97.9816L99.6582 35.3931H98.5804L97.4373 40.0418Z" fill="#003057"/>
<path d="M103.12 38.7681H106.19V37.8971H103.12V36.3076H106.441V35.3931H102.064V41.468H106.495V40.5535H103.12V38.7681Z" fill="#003057"/>
<path d="M110.752 35.3931L108.422 41.4789H109.522L110.088 39.8676H112.516L113.082 41.4789H114.225L111.884 35.3931H110.752ZM110.382 39.0511L111.307 36.4383H111.329L112.243 39.0511H110.382Z" fill="#003057"/>
<path d="M120.419 38.583V38.5612C120.615 38.4959 121.421 38.1911 121.421 37.0262C121.421 35.9919 120.735 35.3823 119.407 35.3823H116.5V41.468H117.567V38.964H119.135C120.114 38.964 120.343 39.4539 120.343 40.5753C120.343 40.8692 120.343 41.2067 120.506 41.468H121.649C121.421 41.2176 121.312 40.5753 121.312 39.8676C121.323 38.9096 120.789 38.6374 120.419 38.583ZM119.331 38.1584H117.589V36.2532H119.32C119.875 36.2532 120.376 36.4056 120.376 37.1786C120.365 37.8209 119.995 38.1584 119.331 38.1584Z" fill="#003057"/>
<path d="M135.008 23.5482C135.095 23.5047 135.476 23.3631 135.476 22.8188C135.476 22.3289 135.16 22.0458 134.529 22.0458H133.168V24.9091H133.669V23.7333H134.409C134.866 23.7333 134.975 23.9619 134.975 24.4954C134.975 24.6369 134.975 24.7893 135.051 24.9199H135.585C135.476 24.8002 135.432 24.4954 135.432 24.1688C135.432 23.7006 135.171 23.57 135.008 23.5482ZM134.485 23.3523H133.669V22.4595H134.485C134.746 22.4595 134.986 22.5357 134.986 22.895C134.975 23.1889 134.801 23.3523 134.485 23.3523Z" fill="#003057"/>
<path d="M134.311 20.8701C132.83 20.8701 131.622 22.0785 131.622 23.5591C131.622 25.0397 132.83 26.2482 134.311 26.2482C135.791 26.2482 137 25.0397 137 23.5591C137 22.0676 135.791 20.8701 134.311 20.8701ZM134.311 25.9325C132.994 25.9325 131.927 24.8655 131.927 23.5482C131.927 22.2309 132.994 21.164 134.311 21.164C135.628 21.164 136.695 22.2309 136.695 23.5482C136.695 24.8655 135.628 25.9325 134.311 25.9325Z" fill="#003057"/>
<path d="M12.0954 14.1638C11.5184 13.5868 11.5184 12.6396 12.0954 12.0517C12.6833 11.4639 13.6305 11.4639 14.2184 12.0517L17.4953 15.3287C19.4332 13.0316 20.7831 10.2228 21.2948 7.1309V7.12001C21.0009 6.70631 20.6634 6.31438 20.2932 5.95512C18.4642 4.13701 15.9385 2.9939 13.1515 2.9939H3.0376V13.1078C3.0376 15.8948 4.16983 18.4205 5.99882 20.2495C6.36897 20.6197 6.75001 20.9463 7.16371 21.2402C10.2447 20.7177 13.0426 19.3786 15.3397 17.4516C15.3506 17.4407 15.3615 17.4407 15.3615 17.4298L12.0954 14.1638Z" fill="#E1E667"/>
<path d="M25.8127 23.6571L23.4285 21.2729C25.2684 18.9649 26.2591 16.1234 26.2591 13.1295C26.2591 11.8558 26.074 10.6256 25.7365 9.47155C24.9962 6.91314 23.4938 4.68134 21.4906 3.03743C21.36 2.92856 21.2185 2.81969 21.0878 2.71082C20.6741 2.3951 20.2495 2.10116 19.8032 1.83988C17.8653 0.674984 15.5682 0 13.1404 0H0V13.1186C0 13.1295 0 13.1295 0 13.1295C0 15.5682 0.664097 17.8544 1.83988 19.814C2.19914 20.4128 2.59107 20.9681 3.03743 21.4906C5.44342 24.3974 9.07963 26.2482 13.1295 26.2482C13.7174 26.2482 14.2291 25.9107 14.4686 25.4317C14.5884 25.2248 14.6537 24.9744 14.6537 24.7131C14.6537 23.8857 13.9787 23.2107 13.1513 23.2107C11.1046 23.2107 9.19938 22.6011 7.6099 21.5451C7.45749 21.4471 7.31596 21.3491 7.17443 21.2402C6.76073 20.9463 6.3688 20.6088 6.00954 20.2495C4.18055 18.4205 3.04832 15.8948 3.04832 13.1078V2.99388H13.1622C15.9601 2.99388 18.475 4.12611 20.304 5.9551C20.6741 6.32525 21.0007 6.70629 21.3055 7.11999V7.13088C21.4144 7.27241 21.5124 7.41394 21.6104 7.56635C22.6773 9.16672 23.287 11.0719 23.287 13.1295C23.287 13.6739 23.2434 14.2182 23.1563 14.7408C22.895 16.3303 22.2636 17.8326 21.3055 19.1282L18.8016 16.6351L17.506 15.3396L14.2291 12.0626C13.6521 11.4747 12.6941 11.4747 12.1062 12.0626C11.5292 12.6396 11.5292 13.5868 12.1062 14.1747L15.3831 17.4516C15.3722 17.4625 15.3613 17.4625 15.3613 17.4734L23.7115 25.8236C23.9946 26.1175 24.3865 26.2591 24.7676 26.2591C25.1595 26.2591 25.5405 26.1175 25.8236 25.8236C26.1611 25.4861 26.3026 25.0397 26.2591 24.6043C26.2264 24.2559 26.0849 23.9293 25.8127 23.6571Z" fill="#003057"/>
</g>
<defs>
<clipPath id="clip0_457_1234">
<rect width="137" height="41.6204" fill="white"/>
</clipPath>
</defs>
</svg>
