<svg width="138" height="42" viewBox="0 0 138 42" fill="none" xmlns="http://www.w3.org/2000/svg">
<g clip-path="url(#clip0_457_628)">
<path d="M50.2747 16.3085C50.8734 15.3395 51.1783 14.1855 51.1783 12.8356C51.1783 10.8106 50.5468 9.25381 49.284 8.17601C48.0211 7.09821 46.1377 6.56476 43.6337 6.56476H35.7952V26.259H39.8015V19.1391H43.699L46.8671 26.259H51.3416L47.6836 18.4641C48.8158 17.9851 49.6759 17.2665 50.2747 16.3085ZM46.1594 14.8714C45.6042 15.394 44.7659 15.6553 43.6446 15.6553H39.8015V10.0377H43.6446C44.7659 10.0377 45.6042 10.2989 46.1594 10.8215C46.7147 11.3441 46.9868 12.0191 46.9868 12.8574C46.976 13.6848 46.7038 14.3488 46.1594 14.8714Z" fill="white"/>
<path d="M61.1833 22.7862C60.6499 23.0801 60.0293 23.2217 59.2999 23.2217C58.3201 23.2217 57.5144 22.9386 56.8939 22.3725C56.2733 21.8064 55.9359 21.0661 55.9032 20.1516H65.7667C65.8756 19.4875 65.93 18.8996 65.93 18.3988C65.93 17.1577 65.6469 16.0363 65.0808 15.0565C64.5147 14.0767 63.7308 13.3037 62.7184 12.7594C61.7059 12.2151 60.541 11.932 59.2128 11.932C57.8519 11.932 56.6326 12.226 55.5657 12.803C54.4988 13.3908 53.6714 14.2182 53.0835 15.296C52.4956 16.3738 52.2017 17.6258 52.2017 19.052C52.2017 20.4673 52.4956 21.7193 53.0835 22.808C53.6714 23.8966 54.4988 24.7458 55.5766 25.3555C56.6544 25.9543 57.8955 26.2591 59.2999 26.2591C60.9874 26.2591 62.4353 25.8345 63.6655 24.9853C64.8957 24.1362 65.6578 23.0039 65.9627 21.5886H62.3156C62.0869 22.1003 61.7168 22.4922 61.1833 22.7862ZM56.8721 15.7315C57.46 15.2525 58.2003 15.013 59.1039 15.013C59.964 15.013 60.6716 15.2525 61.2378 15.7206C61.793 16.1888 62.0869 16.842 62.1087 17.6585H55.9467C55.9794 16.8637 56.2842 16.2214 56.8721 15.7315Z" fill="white"/>
<path d="M84.2525 15.8186C83.5993 18.0504 83.0985 19.8685 82.7502 21.2512C82.3691 19.7052 81.9119 17.996 81.3893 16.1343C80.8667 14.2727 80.3986 12.705 80.1591 11.9538H76.1419C75.9023 12.6832 75.4451 14.1421 74.9552 15.7969C74.4544 17.4517 73.9427 19.1935 73.4093 21.0008C73.1806 19.9012 72.7016 18.094 71.9722 15.6009L70.8835 11.9538H66.605L71.3952 26.2809H75.456C76.61 22.6447 77.5027 19.5855 78.145 17.1359C78.2539 17.6041 78.5478 18.7036 79.0269 20.4455C79.5059 22.1874 80.0829 24.1253 80.7361 26.2809H84.6009L89.6415 11.9538H85.4283L84.2525 15.8186Z" fill="white"/>
<path d="M99.9623 21.5995C99.7336 22.1003 99.3635 22.4922 98.83 22.7862C98.2966 23.0801 97.676 23.2217 96.9466 23.2217C95.9668 23.2217 95.1612 22.9386 94.5406 22.3725C93.9201 21.8064 93.5826 21.0661 93.5499 20.1516H103.413C103.522 19.4875 103.577 18.8996 103.577 18.3988C103.577 17.1577 103.294 16.0363 102.728 15.0565C102.161 14.0767 101.378 13.3037 100.365 12.7594C99.3526 12.2151 98.1877 11.932 96.8595 11.932C95.4987 11.932 94.2793 12.226 93.2124 12.803C92.1455 13.3908 91.3181 14.2182 90.7302 15.296C90.1423 16.3738 89.8484 17.6258 89.8484 19.052C89.8484 20.4673 90.1423 21.7193 90.7302 22.808C91.3181 23.8966 92.1455 24.7458 93.2233 25.3555C94.3011 25.9543 95.5422 26.2591 96.9466 26.2591C98.6341 26.2591 100.082 25.8345 101.312 24.9853C102.532 24.1362 103.305 23.0039 103.609 21.5886H99.9623V21.5995ZM94.5188 15.7315C95.1067 15.2525 95.847 15.013 96.7506 15.013C97.6107 15.013 98.3184 15.2525 98.8845 15.7206C99.4397 16.1888 99.7336 16.842 99.7554 17.6585H93.5826C93.6261 16.8637 93.9418 16.2214 94.5188 15.7315Z" fill="white"/>
<path d="M120.234 26.2373V11.9102H117.207L116.837 13.8916C116.347 13.2493 115.716 12.7485 114.932 12.411C114.148 12.0735 113.255 11.8993 112.254 11.8993C110.947 11.8993 109.782 12.2041 108.759 12.8029C107.735 13.4017 106.941 14.2617 106.386 15.3613C105.83 16.4609 105.547 17.7346 105.547 19.1717C105.547 20.587 105.819 21.8172 106.353 22.8841C106.886 23.951 107.648 24.7675 108.606 25.3554C109.575 25.9433 110.675 26.2264 111.916 26.2264C112.918 26.2264 113.832 26.0304 114.681 25.6494C115.52 25.2683 116.173 24.7567 116.641 24.1035V26.2155H120.234V26.2373ZM115.487 21.7954C114.823 22.4813 113.963 22.8297 112.896 22.8297C111.862 22.8297 111.012 22.4813 110.359 21.7737C109.706 21.0769 109.379 20.1624 109.379 19.0302C109.379 17.9088 109.695 16.9943 110.337 16.2867C110.969 15.5899 111.84 15.2416 112.928 15.2416C113.995 15.2416 114.855 15.5899 115.509 16.2758C116.162 16.9617 116.488 17.8871 116.488 19.0302C116.478 20.1842 116.14 21.0987 115.487 21.7954Z" fill="white"/>
<path d="M128.181 12.4981C127.56 12.8683 127.147 13.4126 126.94 14.1311L126.591 11.9429H123.053V26.27H127.005V19.3895C127.005 18.1484 127.343 17.1794 128.018 16.4936C128.692 15.8077 129.661 15.4702 130.924 15.4702C131.262 15.4702 131.512 15.4811 131.675 15.5029V12.1062C131.36 12.0082 130.924 11.9538 130.38 11.9538C129.542 11.9429 128.812 12.1279 128.181 12.4981Z" fill="white"/>
<path d="M15.8178 38.1584C15.5021 38.0604 14.1521 37.712 14.065 37.6903C13.6295 37.5705 13.3356 37.331 13.3356 36.9064C13.3356 36.2967 13.9561 36.1117 14.4569 36.1117C15.1863 36.1117 15.7198 36.4056 15.7633 37.1895H16.8302C16.8302 35.9157 15.7633 35.2516 14.5005 35.2516C13.4009 35.2516 12.2795 35.8177 12.2795 37.037C12.2795 37.6685 12.5844 38.2999 13.6295 38.583C14.4678 38.8116 15.023 38.9205 15.4476 39.0838C15.698 39.1818 15.9484 39.3668 15.9484 39.835C15.9484 40.2922 15.6 40.7604 14.6638 40.7604C13.8146 40.7604 13.1178 40.3902 13.1178 39.4539H12.04C12.0618 40.9563 13.194 41.6313 14.5767 41.6313C15.7851 41.6313 16.9935 41.087 16.9935 39.7261C17.0044 39.0729 16.6125 38.3979 15.8178 38.1584Z" fill="white"/>
<path d="M23.493 38.9314C23.493 39.7479 23.4386 40.695 22.0668 40.695C20.6842 40.695 20.6406 39.7479 20.6406 38.9314V35.3823H19.5737V39.2798C19.5737 40.8366 20.5753 41.6095 22.0668 41.6095C23.5583 41.6095 24.5599 40.8366 24.5599 39.2798V35.3823H23.493V38.9314Z" fill="white"/>
<path d="M30.8961 38.1584C30.5804 38.0604 29.2304 37.712 29.1433 37.6903C28.7078 37.5705 28.4139 37.331 28.4139 36.9064C28.4139 36.2967 29.0344 36.1117 29.5352 36.1117C30.2647 36.1117 30.7981 36.4056 30.8525 37.1895H31.9195C31.9195 35.9157 30.8526 35.2516 29.5897 35.2516C28.4901 35.2516 27.3688 35.8177 27.3688 37.037C27.3688 37.6685 27.6736 38.2999 28.7187 38.583C29.557 38.8116 30.1122 38.9205 30.5368 39.0838C30.7872 39.1818 31.0376 39.3668 31.0376 39.835C31.0376 40.2922 30.6892 40.7604 29.753 40.7604C28.9038 40.7604 28.207 40.3902 28.207 39.4539H27.1401C27.1619 40.9563 28.2941 41.6313 29.6768 41.6313C30.8852 41.6313 32.0937 41.087 32.0937 39.7261C32.0828 39.0729 31.6908 38.3979 30.8961 38.1584Z" fill="white"/>
<path d="M34.1295 36.3076H36.0565V41.468H37.1234V36.3076H39.0504V35.3931H34.1295V36.3076Z" fill="white"/>
<path d="M42.3054 35.3931L39.9756 41.4789H41.0752L41.6413 39.8676H44.0691L44.6352 41.4789H45.7892L43.4485 35.3931H42.3054ZM41.9352 39.0511L42.8606 36.4383H42.8824L43.7969 39.0511H41.9352Z" fill="white"/>
<path d="M49.1315 35.3931H48.0646V41.4789H49.1315V35.3931Z" fill="white"/>
<path d="M56.012 39.8676H56.0011L53.225 35.3931H52.0928V41.468H53.1052V36.9935H53.1379L55.9031 41.468H57.0245V35.3931H56.012V39.8676Z" fill="white"/>
<path d="M61.6187 35.3932L59.2889 41.468H60.3885L60.9546 39.8568H63.3824L63.9485 41.468H65.0916L62.751 35.3823H61.6187V35.3932ZM61.2486 39.0511L62.174 36.4383H62.1957L63.1102 39.0511H61.2486Z" fill="white"/>
<path d="M71.2753 38.2128V38.191C71.8305 37.9515 72.1462 37.5052 72.1462 36.8955C72.1462 35.883 71.4277 35.3931 70.339 35.3931H67.3778V41.4789H70.1757C71.7543 41.4789 72.4184 40.7386 72.4184 39.7805C72.4075 38.9531 72.0156 38.3652 71.2753 38.2128ZM68.4447 36.2532H70.1866C70.7636 36.2532 71.0793 36.4709 71.0793 37.0915C71.0793 37.6358 70.6983 37.9298 70.1866 37.9298H68.4447V36.2532ZM70.3281 40.597H68.4447V38.7027H70.3281C70.9705 38.7027 71.3515 39.0402 71.3515 39.639C71.3515 40.2487 70.9705 40.597 70.3281 40.597Z" fill="white"/>
<path d="M76.1418 35.3931H75.075V41.468H79.2337V40.5535H76.1418V35.3931Z" fill="white"/>
<path d="M82.739 38.7681H85.7982V37.8971H82.739V36.3076H86.0486V35.3931H81.6721V41.468H86.1139V40.5535H82.739V38.7681Z" fill="white"/>
<path d="M97.9373 40.0418H97.9264L96.7288 35.3931H95.6401L94.4208 40.0418H94.399L93.2995 35.3931H92.2217L93.822 41.468H94.9216L96.1627 36.8193H96.1736L97.3929 41.468H98.4816L100.158 35.3931H99.0804L97.9373 40.0418Z" fill="white"/>
<path d="M103.62 38.7681H106.69V37.8971H103.62V36.3076H106.941V35.3931H102.564V41.468H106.995V40.5535H103.62V38.7681Z" fill="white"/>
<path d="M111.252 35.3931L108.922 41.4789H110.022L110.588 39.8676H113.016L113.582 41.4789H114.725L112.384 35.3931H111.252ZM110.882 39.0511L111.807 36.4383H111.829L112.743 39.0511H110.882Z" fill="white"/>
<path d="M120.919 38.583V38.5612C121.115 38.4959 121.921 38.1911 121.921 37.0262C121.921 35.9919 121.235 35.3823 119.907 35.3823H117V41.468H118.067V38.964H119.635C120.614 38.964 120.843 39.4539 120.843 40.5753C120.843 40.8692 120.843 41.2067 121.006 41.468H122.149C121.921 41.2176 121.812 40.5753 121.812 39.8676C121.823 38.9096 121.289 38.6374 120.919 38.583ZM119.831 38.1584H118.089V36.2532H119.82C120.375 36.2532 120.876 36.4056 120.876 37.1786C120.865 37.8209 120.495 38.1584 119.831 38.1584Z" fill="white"/>
<path d="M135.508 23.5482C135.595 23.5047 135.976 23.3631 135.976 22.8188C135.976 22.3289 135.66 22.0458 135.029 22.0458H133.668V24.9091H134.169V23.7333H134.909C135.366 23.7333 135.475 23.9619 135.475 24.4954C135.475 24.6369 135.475 24.7893 135.551 24.9199H136.085C135.976 24.8002 135.932 24.4954 135.932 24.1688C135.932 23.7006 135.671 23.57 135.508 23.5482ZM134.985 23.3523H134.169V22.4595H134.985C135.246 22.4595 135.486 22.5357 135.486 22.895C135.475 23.1889 135.301 23.3523 134.985 23.3523Z" fill="white"/>
<path d="M134.811 20.8701C133.33 20.8701 132.122 22.0785 132.122 23.5591C132.122 25.0397 133.33 26.2482 134.811 26.2482C136.292 26.2482 137.5 25.0397 137.5 23.5591C137.5 22.0676 136.292 20.8701 134.811 20.8701ZM134.811 25.9325C133.494 25.9325 132.427 24.8655 132.427 23.5482C132.427 22.2309 133.494 21.164 134.811 21.164C136.128 21.164 137.195 22.2309 137.195 23.5482C137.195 24.8655 136.128 25.9325 134.811 25.9325Z" fill="white"/>
<path d="M26.3127 23.6571L23.9285 21.2729C25.7684 18.9649 26.7591 16.1234 26.7591 13.1295C26.7591 11.8558 26.574 10.6256 26.2365 9.47155C25.4962 6.91314 23.9938 4.68134 21.9906 3.03743C21.86 2.92856 21.7185 2.81969 21.5878 2.71082C21.1741 2.3951 20.7495 2.10116 20.3032 1.83988C18.3653 0.674984 16.0682 0 13.6404 0H0.5V13.1186C0.5 13.1295 0.5 13.1295 0.5 13.1295C0.5 15.5682 1.1641 17.8544 2.33988 19.814C2.69914 20.4128 3.09107 20.9681 3.53743 21.4906C5.94342 24.3974 9.57963 26.2482 13.6295 26.2482C14.2174 26.2482 14.7291 25.9107 14.9686 25.4317C15.0884 25.2248 15.1537 24.9744 15.1537 24.7131C15.1537 23.8857 14.4787 23.2107 13.6513 23.2107C11.6046 23.2107 9.69938 22.6011 8.1099 21.5451C7.95749 21.4471 7.81596 21.3491 7.67443 21.2402C7.26073 20.9463 6.8688 20.6088 6.50954 20.2495C4.68055 18.4205 3.54832 15.8948 3.54832 13.1078V2.99388H13.6622C16.4601 2.99388 18.975 4.12611 20.804 5.9551C21.1741 6.32525 21.5007 6.70629 21.8055 7.11999V7.13088C21.9144 7.27241 22.0124 7.41394 22.1104 7.56635C23.1773 9.16672 23.787 11.0719 23.787 13.1295C23.787 13.6739 23.7434 14.2182 23.6563 14.7408C23.395 16.3303 22.7636 17.8326 21.8055 19.1282L19.3016 16.6351L18.006 15.3396L14.7291 12.0626C14.1521 11.4747 13.1941 11.4747 12.6062 12.0626C12.0292 12.6396 12.0292 13.5868 12.6062 14.1747L15.8831 17.4516C15.8722 17.4625 15.8613 17.4625 15.8613 17.4734L24.2115 25.8236C24.4946 26.1175 24.8865 26.2591 25.2676 26.2591C25.6595 26.2591 26.0405 26.1175 26.3236 25.8236C26.6611 25.4861 26.8026 25.0397 26.7591 24.6043C26.7264 24.2559 26.5849 23.9293 26.3127 23.6571Z" fill="white"/>
</g>
<defs>
<clipPath id="clip0_457_628">
<rect width="137" height="41.6204" fill="white" transform="translate(0.5)"/>
</clipPath>
</defs>
</svg>
