<svg width="87" height="67" viewBox="0 0 87 67" fill="none" xmlns="http://www.w3.org/2000/svg">
<path d="M43.504 17.5331L50.9301 30.8516C50.9306 30.8525 50.9311 30.8534 50.9316 30.8543C52.3469 33.4159 54.9921 35.0676 57.8707 35.0676C58.6214 35.0676 59.3874 34.96 60.132 34.7181L76.8008 29.5716V53.7134C76.8008 55.2511 75.8317 56.4902 74.6172 56.8246C74.6163 56.8249 74.6154 56.8251 74.6146 56.8254L45.2083 64.7784C45.2081 64.7784 45.208 64.7785 45.2078 64.7785C44.0916 65.0773 42.9049 65.0785 41.7702 64.7783C41.7691 64.778 41.7681 64.7777 41.767 64.7774L12.3866 56.824L12.3811 56.8226C11.1791 56.502 10.2052 55.2724 10.2052 53.7134V29.5731L26.8732 34.7325C27.6181 34.9746 28.3843 35.0823 29.1353 35.0823C32.0166 35.0823 34.6596 33.4282 36.087 30.8563L43.504 17.5331ZM43.504 17.5331L36.0881 30.8542L43.504 17.5331ZM7.23717 1.95193L0.236832 17.0686C-0.388441 18.4215 0.277611 20.039 1.60971 20.4508L28.51 28.7591C29.4751 29.0532 30.5082 28.612 31.0247 27.6856L42.6437 6.87338L7.23717 1.95193ZM7.23717 1.95193C7.65855 1.04022 8.55568 0.525548 9.49359 0.643187L7.23717 1.95193ZM57.2778 26.9698L45.8812 6.52013L77.7039 2.12912L77.7084 2.12847C77.9301 2.09719 78.2367 2.2123 78.4072 2.58124L78.4077 2.58225L85.4024 17.6866C85.4032 17.6883 85.4039 17.69 85.4047 17.6917C85.6833 18.3153 85.3256 18.9071 84.9332 19.0344C84.932 19.0348 84.9308 19.0352 84.9296 19.0356L58.0451 27.3389C58.0445 27.3391 58.0439 27.3393 58.0432 27.3395C57.8033 27.4116 57.4758 27.3246 57.278 26.9701C57.2779 26.97 57.2779 26.9699 57.2778 26.9698ZM41.123 6.52L29.715 26.9544L29.7146 26.9551C29.5168 27.3099 29.1891 27.397 28.9491 27.3248C28.9485 27.3246 28.9479 27.3244 28.9473 27.3242L2.05267 19.0177C2.05257 19.0176 2.05247 19.0176 2.05237 19.0176C1.67857 18.9018 1.31308 18.316 1.59822 17.6984C1.59829 17.6983 1.59836 17.6981 1.59844 17.6979L8.59831 2.58225L8.59877 2.58124C8.76333 2.2252 9.05503 2.10266 9.30057 2.13076L41.123 6.52ZM45.2206 5.33471L45.3643 5.07724L77.4988 0.643187L45.2206 5.33471Z" stroke="black" stroke-width="3"/>
</svg>
