<svg width="22" height="22" viewBox="0 0 22 22" fill="none" xmlns="http://www.w3.org/2000/svg">
<circle cx="11" cy="11" r="11" fill="#E1E667"/>
<path d="M15.6508 13.2924L13.7029 12.4576C13.6196 12.4221 13.5272 12.4146 13.4393 12.4363C13.3515 12.4579 13.2731 12.5075 13.2159 12.5776L12.3532 13.6316C10.9993 12.9932 9.90979 11.9037 9.27145 10.5498L10.3254 9.68715C10.3956 9.63004 10.4453 9.55162 10.467 9.46375C10.4886 9.37588 10.4811 9.28334 10.4454 9.20016L9.6106 7.25221C9.57149 7.16253 9.50231 7.08932 9.415 7.04518C9.32769 7.00105 9.22771 6.98877 9.13231 7.01045L7.3235 7.42787C7.23152 7.44911 7.14946 7.5009 7.09071 7.57478C7.03195 7.64866 6.99998 7.74028 7 7.83468C7 12.2958 10.6159 15.9048 15.0701 15.9048C15.1645 15.9048 15.2562 15.8729 15.3301 15.8141C15.404 15.7554 15.4558 15.6733 15.4771 15.5813L15.8945 13.7725C15.916 13.6766 15.9035 13.5762 15.859 13.4886C15.8145 13.401 15.7409 13.3316 15.6508 13.2924Z" fill="#003057"/>
</svg>
