<svg width="34" height="34" viewBox="0 0 34 34" fill="none" xmlns="http://www.w3.org/2000/svg">
<path d="M0 0C36.2464 0 27.8223 24.0808 27.8603 27.7996L34 34H32.0268L26.6839 28.5964C23.7241 28.9152 17.2429 31.2147 10.4125 25.7884C3.56696 20.3621 3.94643 13.8656 0 0ZM6.04866 3.49107C2.27679 1.70759 5.65402 4.18929 5.65402 4.18929C9.08438 6.55714 10.6629 9.78259 12.4996 13.2888C14.8902 17.8576 18.4951 23.8911 23.4433 26.0161C28.3763 28.1411 26.0388 26.9647 23.8987 25.371C21.7585 23.7621 18.7228 18.7683 16.9924 15.4897C14.5866 10.9362 12.3629 6.48884 6.04866 3.49107Z" fill="#E1E667"/>
</svg>
