<svg width="22" height="21" viewBox="0 0 22 21" fill="none" xmlns="http://www.w3.org/2000/svg">
<circle cx="11.2896" cy="10.5" r="10.5" fill="#E1E667"/>
<path d="M9.63889 14.4375C9.21667 14.4375 8.79444 14.0656 8.58333 13.9062C7.52778 13.1625 7.21111 12.8969 7 12.7375V14.9688C7 15.2621 7.23635 15.5 7.52778 15.5H11.75C12.0414 15.5 12.2778 15.2621 12.2778 14.9688V12.7375C12.0667 12.8969 11.75 13.1625 10.6944 13.9062C10.4833 14.0656 10.0611 14.4375 9.63889 14.4375ZM11.75 11.25H7.52778C7.23635 11.25 7 11.4879 7 11.7812V12.0469C7.42222 12.3656 7.36944 12.3656 8.9 13.4812C9.05833 13.5875 9.375 13.9062 9.63889 13.9062C9.90278 13.9062 10.2194 13.5875 10.3778 13.5344C11.9083 12.4188 11.8556 12.4188 12.2778 12.1V11.7812C12.2778 11.4879 12.0414 11.25 11.75 11.25ZM15.9722 9.65625H10.6944C10.403 9.65625 10.1667 9.89415 10.1667 10.1875V10.7188H11.75C12.2977 10.7188 12.7493 11.1408 12.8008 11.6787L12.8056 11.675V13.9062H15.9722C16.2637 13.9062 16.5 13.6683 16.5 13.375V10.1875C16.5 9.89415 16.2637 9.65625 15.9722 9.65625ZM15.4444 11.7812H14.3889V10.7188H15.4444V11.7812ZM9.63889 10.1875C9.63889 9.60163 10.1124 9.125 10.6944 9.125H14.3889V7.53125C14.3889 7.2379 14.1525 7 13.8611 7H8.58333C8.2919 7 8.05556 7.2379 8.05556 7.53125V10.7188H9.63889V10.1875Z" fill="#003057"/>
</svg>
