<svg width="23" height="22" viewBox="0 0 23 22" fill="none" xmlns="http://www.w3.org/2000/svg">
<circle cx="11.7896" cy="11" r="11" fill="#E1E667"/>
<path d="M12.0549 14.7251C9.47826 11.0616 9 10.6857 9 9.33929C9 7.49504 10.5244 6 12.4048 6C14.2852 6 15.8095 7.49504 15.8095 9.33929C15.8095 10.6857 15.3313 11.0616 12.7547 14.7251C12.5856 14.9647 12.2239 14.9646 12.0549 14.7251ZM12.4048 10.7307C13.1883 10.7307 13.8234 10.1077 13.8234 9.33929C13.8234 8.57085 13.1883 7.94792 12.4048 7.94792C11.6213 7.94792 10.9861 8.57085 10.9861 9.33929C10.9861 10.1077 11.6213 10.7307 12.4048 10.7307Z" fill="#003057"/>
</svg>
